<svg width="96" height="96" viewBox="0 0 96 96" fill="none" xmlns="http://www.w3.org/2000/svg">
<rect width="96" height="96" rx="16" fill="#AFBACD" fill-opacity="0.15"/>
<g clip-path="url(#clip0_0_5944)">
<path d="M48 72C61.2548 72 72 61.2548 72 48C72 34.7452 61.2548 24 48 24C34.7452 24 24 34.7452 24 48C24 61.2548 34.7452 72 48 72Z" fill="#FBC85B"/>
<path d="M56.7155 56.6663C56.6937 57.7676 55.7271 60.4433 52.3054 62.1012C50.9631 62.7544 49.4912 63.0938 48 63.0938C46.5088 63.0938 45.0369 62.7544 43.6946 62.1012C40.267 60.4493 39.3063 57.7676 39.2845 56.6663C39.245 56.0481 39.5613 55.3086 40.3994 55.5452C41.7673 56.0461 43.9141 56.3403 45.5785 56.4934C47.1892 56.6465 48.8108 56.6465 50.4215 56.4934C52.0859 56.3344 54.2327 56.0461 55.6006 55.5452C56.4387 55.3086 56.755 56.0481 56.7155 56.6663Z" fill="#9A695E"/>
<path d="M50.514 39.0903C50.1668 40.3939 50.3316 41.7159 51.0381 43.2545C51.6673 44.6312 52.7019 46.1326 53.9014 47.8704C54.3107 48.4641 54.772 49.1385 55.2498 49.8491C55.3767 50.0371 55.5668 50.1733 55.7855 50.233C56.0056 50.2938 56.2404 50.2706 56.4444 50.1681C57.2153 49.7891 57.9373 49.4299 58.6041 49.1295C60.5117 48.2227 62.1584 47.44 63.3915 46.5652C64.7718 45.5833 65.5763 44.5224 65.9268 43.2179C66.2728 42.0086 66.1492 40.7131 65.5805 39.5911C65.3041 39.0592 64.919 38.5912 64.4502 38.2176C63.9814 37.844 63.4393 37.5731 62.859 37.4225C61.9785 37.1813 61.042 37.2485 60.2049 37.6129C59.7523 37.8037 59.3299 38.0593 58.9508 38.3716C58.7788 37.9118 58.5421 37.4788 58.2478 37.0857C57.7041 36.3572 56.9299 35.8341 56.0512 35.6015C55.4731 35.443 54.8682 35.407 54.2754 35.496C53.6825 35.585 53.1149 35.7969 52.6087 36.1181C51.562 36.8107 50.8142 37.8717 50.514 39.0903Z" fill="#E46E80"/>
<path d="M43.3854 36.1305C42.8793 35.8092 42.3116 35.5973 41.7188 35.5084C41.1259 35.4194 40.521 35.4553 39.9429 35.6138C39.0642 35.8465 38.29 36.3696 37.7463 37.0981C37.4521 37.4911 37.2154 37.9241 37.0433 38.384C36.6643 38.0716 36.2418 37.816 35.7892 37.6253C34.9522 37.2609 34.0156 37.1937 33.1351 37.4348C32.5549 37.5855 32.0128 37.8564 31.5439 38.23C31.0751 38.6036 30.69 39.0715 30.4136 39.6035C29.845 40.7255 29.7213 42.0209 30.0674 43.2303C30.4178 44.5347 31.2223 45.5956 32.6026 46.5775C33.8357 47.4523 35.4824 48.2351 37.39 49.1419C38.0408 49.4515 38.7789 49.8014 39.5497 50.1804C39.7537 50.283 39.9885 50.3061 40.2086 50.2454C40.4274 50.1856 40.6174 50.0494 40.7443 49.8614C41.2221 49.1509 41.6835 48.4765 42.0928 47.8828C43.2922 46.1449 44.3142 44.6401 44.9561 43.2668C45.6625 41.7282 45.8274 40.4063 45.4801 39.1027C45.1799 37.8841 44.4321 36.823 43.3854 36.1305Z" fill="#E46E80"/>
</g>
<defs>
<clipPath id="clip0_0_5944">
<rect width="48" height="48" fill="white" transform="translate(24 24)"/>
</clipPath>
</defs>
</svg>
