<svg width="96" height="96" viewBox="0 0 96 96" fill="none" xmlns="http://www.w3.org/2000/svg">
<rect width="96" height="96" rx="16" fill="#AFBACD" fill-opacity="0.15"/>
<path d="M48 72C61.2548 72 72 61.2548 72 48C72 34.7452 61.2548 24 48 24C34.7452 24 24 34.7452 24 48C24 61.2548 34.7452 72 48 72Z" fill="#E46E80"/>
<path d="M64.2578 52.6445H31.7417C30.8865 52.6445 30.1934 53.3378 30.1934 54.1929V65.0316C30.1934 65.8868 30.8866 66.58 31.7417 66.58H64.2579C65.1131 66.58 65.8063 65.8867 65.8063 65.0316V54.193C65.8062 53.3378 65.113 52.6445 64.2578 52.6445Z" fill="#494D59"/>
<path d="M61.0942 61.5486L61.7081 60.9347C62.0105 60.6323 62.0105 60.1423 61.7081 59.84C61.4057 59.5376 60.9157 59.5376 60.6134 59.84L59.9995 60.4539L59.4571 59.9114C60.018 59.487 60.3866 58.8208 60.3866 58.0648C60.3866 56.784 59.3448 55.7422 58.064 55.7422C56.7833 55.7422 55.7415 56.784 55.7415 58.0648C55.7415 58.3128 55.7909 58.5474 55.8633 58.7717C55.2475 59.3329 54.9057 60.1577 54.9771 61.0088C55.0951 62.3968 56.332 63.4841 57.7934 63.4841C58.6019 63.4841 59.3866 63.1689 59.987 62.6308L60.6134 63.2572C60.7646 63.4084 60.9627 63.484 61.1608 63.484C61.3589 63.484 61.557 63.4084 61.7082 63.2572C62.0106 62.9548 62.0106 62.4648 61.7082 62.1625L61.0942 61.5486ZM58.064 57.2906C58.4912 57.2906 58.8382 57.6376 58.8382 58.0648C58.8382 58.4919 58.4912 58.8389 58.064 58.8389C57.6369 58.8389 57.2898 58.4919 57.2898 58.0648C57.2898 57.6375 57.6368 57.2906 58.064 57.2906ZM57.7934 61.9357C57.1409 61.9357 56.5694 61.4608 56.5194 60.8788C56.4924 60.5524 56.6018 60.2459 56.807 60.0123C57.0744 60.1855 57.3798 60.3002 57.7074 60.3513L58.8922 61.5361C58.5826 61.7874 58.1943 61.9357 57.7934 61.9357Z" fill="#F9FAFC"/>
<path d="M40.7225 55.8967C40.3808 55.6412 39.8954 55.7092 39.6392 56.0517L34.994 62.2453C34.737 62.587 34.8065 63.0724 35.149 63.3287C35.2881 63.433 35.4507 63.4836 35.6125 63.4836C35.8484 63.4836 36.0805 63.377 36.2325 63.1737L40.8776 56.9801C41.1346 56.6384 41.065 56.153 40.7225 55.8967Z" fill="#F9FAFC"/>
<path d="M44.1287 61.1615C44.5566 61.1615 44.9029 60.8152 44.9029 60.3873V56.5164C44.9029 56.0884 44.5566 55.7422 44.1287 55.7422C43.7007 55.7422 43.3545 56.0885 43.3545 56.5164V60.3873C43.3545 60.8153 43.7007 61.1615 44.1287 61.1615Z" fill="#F9FAFC"/>
<path d="M44.1287 61.9355C43.7007 61.9355 43.3545 62.2819 43.3545 62.7097C43.3545 63.1376 43.7008 63.4839 44.1287 63.4839H44.1363C44.5642 63.4839 44.9067 63.1376 44.9067 62.7097C44.9067 62.2819 44.5566 61.9355 44.1287 61.9355Z" fill="#F9FAFC"/>
<path d="M53.4189 57.2917H53.2487L53.3954 56.705C53.4998 56.2907 53.2472 55.8703 52.8322 55.7667C52.4171 55.6594 51.9975 55.9142 51.8939 56.33L51.6535 57.2917H50.152L50.2988 56.705C50.4031 56.2907 50.1505 55.8703 49.7355 55.7667C49.3189 55.6594 48.9001 55.9142 48.7973 56.33L48.5568 57.2917H47.9995C47.5716 57.2917 47.2254 57.638 47.2254 58.0659C47.2254 58.4938 47.5717 58.8401 47.9995 58.8401H48.1697L47.7826 60.3884H47.2254C46.7974 60.3884 46.4512 60.7347 46.4512 61.1626C46.4512 61.5905 46.7975 61.9368 47.2254 61.9368H47.3955L47.2488 62.5235C47.1445 62.9378 47.397 63.3582 47.812 63.4618C47.8748 63.4776 47.9383 63.4852 48.0003 63.4852C48.3474 63.4852 48.6626 63.2508 48.7503 62.8985L48.9908 61.9368H50.4923L50.3455 62.5235C50.2412 62.9378 50.4938 63.3582 50.9088 63.4618C50.9715 63.4776 51.0351 63.4852 51.097 63.4852C51.4441 63.4852 51.7594 63.2508 51.847 62.8985L52.0875 61.9368H52.6448C53.0727 61.9368 53.419 61.5905 53.419 61.1626C53.419 60.7347 53.0726 60.3884 52.6448 60.3884H52.4746L52.8617 58.8401H53.419C53.8469 58.8401 54.1931 58.4938 54.1931 58.0659C54.1931 57.638 53.8468 57.2917 53.4189 57.2917ZM50.8794 60.3884H49.3779L49.765 58.8401H51.2665L50.8794 60.3884Z" fill="#F9FAFC"/>
<path d="M37.1612 57.2906C37.1612 56.437 36.4664 55.7422 35.6128 55.7422C34.7592 55.7422 34.0645 56.437 34.0645 57.2906C34.0645 58.1442 34.7592 58.8389 35.6128 58.8389C36.4664 58.8389 37.1612 58.1442 37.1612 57.2906Z" fill="#F9FAFC"/>
<path d="M40.2583 60.3867C39.4047 60.3867 38.71 61.0815 38.71 61.9351C38.71 62.7887 39.4047 63.4835 40.2583 63.4835C41.1119 63.4835 41.8067 62.7887 41.8067 61.9351C41.8067 61.0815 41.1119 60.3867 40.2583 60.3867Z" fill="#F9FAFC"/>
<path d="M59.7619 37.0742C59.4979 36.691 59.0592 36.6773 58.59 36.8572C58.59 36.8572 56.4701 37.8277 55.1683 38.1583C53.8665 38.4888 51.7465 38.7943 51.7465 38.7943C51.3212 38.878 50.8391 39.2434 50.867 39.7084C50.8949 40.1735 51.2946 40.528 51.7598 40.5001L51.8474 40.4939C51.9008 40.4898 51.9778 40.4835 52.0762 40.4743C52.273 40.4559 52.5557 40.4259 52.9075 40.3788C53.6104 40.2848 54.5926 40.1224 55.7175 39.848C56.8787 39.5648 57.8242 39.1721 58.4825 38.8484C58.8121 38.6863 59.0712 38.5407 59.2511 38.4336C59.341 38.38 59.4113 38.3359 59.4608 38.3041L59.546 38.2477C59.9297 37.9833 60.0264 37.4579 59.7619 37.0742Z" fill="#3E414D"/>
<path d="M36.2176 37.0742C36.4817 36.691 36.9204 36.6773 37.3896 36.8572C37.3896 36.8572 39.5095 37.8277 40.8113 38.1583C42.1131 38.4888 44.2331 38.7943 44.2331 38.7943C44.6584 38.878 45.1405 39.2434 45.1126 39.7084C45.0847 40.1735 44.685 40.528 44.2198 40.5001L44.1322 40.4939C44.0787 40.4898 44.0018 40.4835 43.9034 40.4743C43.7066 40.4559 43.4239 40.4259 43.0721 40.3788C42.3692 40.2848 41.387 40.1224 40.2621 39.848C39.1008 39.5648 38.1554 39.1721 37.4971 38.8484C37.1675 38.6863 36.9084 38.5407 36.7285 38.4336C36.6385 38.38 36.5683 38.3359 36.5188 38.3041L36.4336 38.2477C36.0499 37.9833 35.9532 37.4579 36.2176 37.0742Z" fill="#3E414D"/>
<path d="M41.8125 48C43.2622 48 44.4375 46.8247 44.4375 45.375C44.4375 43.9253 43.2622 42.75 41.8125 42.75C40.3627 42.75 39.1875 43.9253 39.1875 45.375C39.1875 46.8247 40.3627 48 41.8125 48Z" fill="#3E414D"/>
<path d="M54.1875 48C55.6372 48 56.8125 46.8247 56.8125 45.375C56.8125 43.9253 55.6372 42.75 54.1875 42.75C52.7377 42.75 51.5625 43.9253 51.5625 45.375C51.5625 46.8247 52.7377 48 54.1875 48Z" fill="#3E414D"/>
</svg>
