<svg width="96" height="96" viewBox="0 0 96 96" fill="none" xmlns="http://www.w3.org/2000/svg">
<rect width="96" height="96" rx="16" fill="#AFBACD" fill-opacity="0.15"/>
<g clip-path="url(#clip0_0_10005)">
<path d="M48 72C61.2548 72 72 61.2548 72 48C72 34.7452 61.2548 24 48 24C34.7452 24 24 34.7452 24 48C24 61.2548 34.7452 72 48 72Z" fill="#DDE2E9"/>
<path d="M56.7155 56.6663C56.6937 57.7676 55.7271 60.4433 52.3054 62.1012C50.9631 62.7544 49.4912 63.0938 48 63.0938C46.5088 63.0938 45.0369 62.7544 43.6946 62.1012C40.267 60.4493 39.3063 57.7676 39.2845 56.6663C39.245 56.0481 39.5613 55.3086 40.3994 55.5452C41.7673 56.0461 43.9141 56.3403 45.5785 56.4934C47.1892 56.6465 48.8108 56.6465 50.4215 56.4934C52.0859 56.3344 54.2327 56.0461 55.6006 55.5452C56.4387 55.3086 56.755 56.0481 56.7155 56.6663Z" fill="#BABFC8"/>
<path d="M50.5145 39.0884C50.1672 40.392 50.3321 41.7139 51.0385 43.2525C51.6678 44.6292 52.7024 46.1306 53.9018 47.8685C54.3111 48.4622 54.7725 49.1365 55.2503 49.8471C55.3772 50.0351 55.5672 50.1713 55.786 50.2311C56.0061 50.2918 56.2409 50.2687 56.4449 50.1661C57.2157 49.7871 57.9378 49.4279 58.6046 49.1275C60.5122 48.2208 62.1589 47.438 63.392 46.5632C64.7723 45.5813 65.5768 44.5204 65.9272 43.216C66.2733 42.0066 66.1496 40.7112 65.581 39.5892C65.3046 39.0572 64.9195 38.5893 64.4507 38.2157C63.9818 37.8421 63.4397 37.5712 62.8595 37.4205C61.979 37.1794 61.0425 37.2465 60.2054 37.611C59.7528 37.8017 59.3303 38.0573 58.9513 38.3697C58.7793 37.9098 58.5425 37.4768 58.2483 37.0837C57.7046 36.3553 56.9304 35.8322 56.0517 35.5995C55.4736 35.441 54.8687 35.4051 54.2759 35.4941C53.683 35.583 53.1153 35.7949 52.6092 36.1162C51.5625 36.8087 50.8147 37.8697 50.5145 39.0884Z" fill="#BABFC8"/>
<path d="M43.3854 36.1305C42.8793 35.8092 42.3116 35.5973 41.7188 35.5084C41.1259 35.4194 40.521 35.4553 39.9429 35.6138C39.0642 35.8465 38.29 36.3696 37.7463 37.0981C37.4521 37.4911 37.2154 37.9241 37.0433 38.384C36.6643 38.0716 36.2418 37.816 35.7892 37.6253C34.9522 37.2609 34.0156 37.1937 33.1351 37.4348C32.5549 37.5855 32.0128 37.8564 31.5439 38.23C31.0751 38.6036 30.69 39.0715 30.4136 39.6035C29.845 40.7255 29.7213 42.0209 30.0674 43.2303C30.4178 44.5347 31.2223 45.5956 32.6026 46.5775C33.8357 47.4523 35.4824 48.2351 37.39 49.1419C38.0408 49.4515 38.7789 49.8014 39.5497 50.1804C39.7537 50.283 39.9885 50.3061 40.2086 50.2454C40.4274 50.1856 40.6174 50.0494 40.7443 49.8614C41.2221 49.1509 41.6835 48.4765 42.0928 47.8828C43.2922 46.1449 44.3142 44.6401 44.9561 43.2668C45.6625 41.7282 45.8274 40.4063 45.4801 39.1027C45.1799 37.8841 44.4321 36.823 43.3854 36.1305Z" fill="#BABFC8"/>
</g>
<defs>
<clipPath id="clip0_0_10005">
<rect width="48" height="48" fill="white" transform="translate(24 24)"/>
</clipPath>
</defs>
</svg>
