<svg width="96" height="96" viewBox="0 0 96 96" fill="none" xmlns="http://www.w3.org/2000/svg">
<rect width="96" height="96" rx="16" fill="#AFBACD" fill-opacity="0.15"/>
<g clip-path="url(#clip0_0_9977)">
<path d="M48 72C61.2548 72 72 61.2548 72 48C72 34.7452 61.2548 24 48 24C34.7452 24 24 34.7452 24 48C24 61.2548 34.7452 72 48 72Z" fill="#DDE2E9"/>
<path d="M43.3291 58.6202C43.3291 61.3904 41.2446 63.6341 38.6663 63.6341C36.088 63.6341 34.0034 61.3904 34.0034 58.6202C34.0034 56.4259 36.9081 52.4515 38.1177 50.8743C38.1788 50.791 38.2588 50.7232 38.351 50.6765C38.4432 50.6298 38.5451 50.6055 38.6484 50.6055C38.7518 50.6055 38.8537 50.6298 38.9459 50.6765C39.0381 50.7232 39.118 50.791 39.1792 50.8743C40.4244 52.4515 43.3291 56.4341 43.3291 58.6202Z" fill="#BABFC8"/>
<path d="M41.8125 45.75C43.2622 45.75 44.4375 44.5747 44.4375 43.125C44.4375 41.6753 43.2622 40.5 41.8125 40.5C40.3628 40.5 39.1875 41.6753 39.1875 43.125C39.1875 44.5747 40.3628 45.75 41.8125 45.75Z" fill="#BABFC8"/>
<path d="M54.1875 45.75C55.6372 45.75 56.8125 44.5747 56.8125 43.125C56.8125 41.6753 55.6372 40.5 54.1875 40.5C52.7378 40.5 51.5625 41.6753 51.5625 43.125C51.5625 44.5747 52.7378 45.75 54.1875 45.75Z" fill="#BABFC8"/>
<path d="M54.75 59.0625C52.9936 57.4339 50.6372 56.4375 48.0469 56.4375C47.5206 56.4375 47.0039 56.4786 46.5 56.5578" stroke="#BABFC8" stroke-width="2.15054" stroke-linecap="round"/>
</g>
<defs>
<clipPath id="clip0_0_9977">
<rect width="48" height="48" fill="white" transform="translate(24 24)"/>
</clipPath>
</defs>
</svg>
