<svg width="96" height="96" viewBox="0 0 96 96" fill="none" xmlns="http://www.w3.org/2000/svg">
<rect width="96" height="96" rx="16" fill="#AFBACD" fill-opacity="0.15"/>
<path d="M48 72C61.2548 72 72 61.2548 72 48C72 34.7452 61.2548 24 48 24C34.7452 24 24 34.7452 24 48C24 61.2548 34.7452 72 48 72Z" fill="#DDE2E9"/>
<path d="M64.2578 52.6445H31.7417C30.8865 52.6445 30.1934 53.3378 30.1934 54.1929V65.0316C30.1934 65.8868 30.8866 66.58 31.7417 66.58H64.2579C65.1131 66.58 65.8063 65.8867 65.8063 65.0316V54.193C65.8062 53.3378 65.113 52.6445 64.2578 52.6445Z" fill="#BABFC8"/>
<path d="M61.0947 61.5486L61.7086 60.9347C62.011 60.6323 62.011 60.1423 61.7086 59.84C61.4061 59.5376 60.9162 59.5376 60.6139 59.84L60 60.4539L59.4576 59.9114C60.0185 59.487 60.3871 58.8208 60.3871 58.0648C60.3871 56.784 59.3452 55.7422 58.0645 55.7422C56.7838 55.7422 55.742 56.784 55.742 58.0648C55.742 58.3128 55.7914 58.5474 55.8637 58.7717C55.248 59.3329 54.9062 60.1577 54.9776 61.0088C55.0956 62.3968 56.3325 63.4841 57.7939 63.4841C58.6024 63.4841 59.3871 63.1689 59.9875 62.6308L60.6139 63.2572C60.7651 63.4084 60.9632 63.484 61.1613 63.484C61.3594 63.484 61.5575 63.4084 61.7087 63.2572C62.0111 62.9548 62.0111 62.4648 61.7087 62.1625L61.0947 61.5486ZM58.0645 57.2906C58.4916 57.2906 58.8387 57.6376 58.8387 58.0648C58.8387 58.4919 58.4916 58.8389 58.0645 58.8389C57.6374 58.8389 57.2903 58.4919 57.2903 58.0648C57.2903 57.6375 57.6373 57.2906 58.0645 57.2906ZM57.7939 61.9357C57.1414 61.9357 56.5699 61.4608 56.5199 60.8788C56.4929 60.5524 56.6023 60.2459 56.8075 60.0123C57.0749 60.1855 57.3803 60.3002 57.7079 60.3513L58.8927 61.5361C58.5831 61.7874 58.1947 61.9357 57.7939 61.9357Z" fill="#F9FAFC"/>
<path d="M40.7221 55.8967C40.3803 55.6412 39.8949 55.7092 39.6387 56.0517L34.9936 62.2453C34.7365 62.587 34.8061 63.0724 35.1485 63.3287C35.2877 63.433 35.4502 63.4836 35.612 63.4836C35.8479 63.4836 36.08 63.377 36.232 63.1737L40.8771 56.9801C41.1341 56.6384 41.0645 56.153 40.7221 55.8967Z" fill="#F9FAFC"/>
<path d="M44.1292 61.1615C44.5571 61.1615 44.9034 60.8152 44.9034 60.3873V56.5164C44.9034 56.0884 44.557 55.7422 44.1292 55.7422C43.7012 55.7422 43.355 56.0885 43.355 56.5164V60.3873C43.355 60.8153 43.7012 61.1615 44.1292 61.1615Z" fill="#F9FAFC"/>
<path d="M44.1292 61.9355C43.7012 61.9355 43.355 62.2819 43.355 62.7097C43.355 63.1376 43.7013 63.4839 44.1292 63.4839H44.1368C44.5647 63.4839 44.9072 63.1376 44.9072 62.7097C44.9072 62.2819 44.557 61.9355 44.1292 61.9355Z" fill="#F9FAFC"/>
<path d="M53.4193 57.2897H53.2492L53.3959 56.703C53.5003 56.2888 53.2477 55.8684 52.8327 55.7648C52.4176 55.6575 51.998 55.9123 51.8944 56.328L51.6539 57.2897H50.1525L50.2993 56.703C50.4036 56.2888 50.151 55.8684 49.736 55.7648C49.3194 55.6575 48.9006 55.9123 48.7978 56.328L48.5573 57.2897H48C47.5721 57.2897 47.2258 57.636 47.2258 58.0639C47.2258 58.4918 47.5722 58.8381 48 58.8381H48.1702L47.7831 60.3865H47.2258C46.7979 60.3865 46.4517 60.7328 46.4517 61.1607C46.4517 61.5885 46.798 61.9349 47.2258 61.9349H47.396L47.2493 62.5215C47.1449 62.9358 47.3975 63.3562 47.8125 63.4598C47.8753 63.4756 47.9388 63.4832 48.0008 63.4832C48.3478 63.4832 48.6631 63.2489 48.7508 62.8965L48.9913 61.9349H50.4928L50.346 62.5215C50.2417 62.9358 50.4943 63.3562 50.9093 63.4598C50.972 63.4756 51.0356 63.4832 51.0975 63.4832C51.4446 63.4832 51.7599 63.2489 51.8475 62.8965L52.088 61.9349H52.6453C53.0732 61.9349 53.4194 61.5885 53.4194 61.1607C53.4194 60.7328 53.0731 60.3865 52.6453 60.3865H52.4751L52.8622 58.8381H53.4194C53.8474 58.8381 54.1936 58.4918 54.1936 58.0639C54.1936 57.636 53.8473 57.2897 53.4193 57.2897ZM50.8798 60.3865H49.3783L49.7654 58.8381H51.2669L50.8798 60.3865Z" fill="#F9FAFC"/>
<path d="M37.1612 57.2906C37.1612 56.437 36.4664 55.7422 35.6128 55.7422C34.7592 55.7422 34.0645 56.437 34.0645 57.2906C34.0645 58.1442 34.7592 58.8389 35.6128 58.8389C36.4664 58.8389 37.1612 58.1442 37.1612 57.2906Z" fill="#F9FAFC"/>
<path d="M40.2578 60.3867C39.4043 60.3867 38.7095 61.0815 38.7095 61.9351C38.7095 62.7887 39.4043 63.4835 40.2578 63.4835C41.1114 63.4835 41.8062 62.7887 41.8062 61.9351C41.8062 61.0815 41.1114 60.3867 40.2578 60.3867Z" fill="#F9FAFC"/>
<path d="M59.7618 37.0742C59.4978 36.691 59.0591 36.6773 58.5899 36.8572C58.5899 36.8572 56.47 37.8277 55.1682 38.1583C53.8664 38.4888 51.7464 38.7943 51.7464 38.7943C51.3211 38.878 50.839 39.2434 50.8669 39.7084C50.8948 40.1735 51.2945 40.528 51.7597 40.5001L51.8473 40.4939C51.9008 40.4898 51.9777 40.4835 52.0761 40.4743C52.2729 40.4559 52.5556 40.4259 52.9074 40.3788C53.6103 40.2848 54.5925 40.1224 55.7174 39.848C56.8787 39.5648 57.8241 39.1721 58.4824 38.8484C58.812 38.6863 59.0711 38.5407 59.251 38.4336C59.3409 38.38 59.4112 38.3359 59.4607 38.3041L59.5459 38.2477C59.9296 37.9833 60.0263 37.4579 59.7618 37.0742Z" fill="#BABFC8"/>
<path d="M36.2172 37.0742C36.4812 36.691 36.9199 36.6773 37.3891 36.8572C37.3891 36.8572 39.509 37.8277 40.8108 38.1583C42.1126 38.4888 44.2326 38.7943 44.2326 38.7943C44.6579 38.878 45.14 39.2434 45.1121 39.7084C45.0842 40.1735 44.6845 40.528 44.2193 40.5001L44.1317 40.4939C44.0783 40.4898 44.0013 40.4835 43.9029 40.4743C43.7061 40.4559 43.4234 40.4259 43.0716 40.3788C42.3687 40.2848 41.3865 40.1224 40.2616 39.848C39.1004 39.5648 38.1549 39.1721 37.4966 38.8484C37.167 38.6863 36.9079 38.5407 36.728 38.4336C36.6381 38.38 36.5678 38.3359 36.5183 38.3041L36.4331 38.2477C36.0494 37.9833 35.9527 37.4579 36.2172 37.0742Z" fill="#BABFC8"/>
<path d="M41.8125 48C43.2622 48 44.4375 46.8247 44.4375 45.375C44.4375 43.9253 43.2622 42.75 41.8125 42.75C40.3628 42.75 39.1875 43.9253 39.1875 45.375C39.1875 46.8247 40.3628 48 41.8125 48Z" fill="#BABFC8"/>
<path d="M54.1875 48C55.6372 48 56.8125 46.8247 56.8125 45.375C56.8125 43.9253 55.6372 42.75 54.1875 42.75C52.7378 42.75 51.5625 43.9253 51.5625 45.375C51.5625 46.8247 52.7378 48 54.1875 48Z" fill="#BABFC8"/>
</svg>
