<svg width="96" height="96" viewBox="0 0 96 96" fill="none" xmlns="http://www.w3.org/2000/svg">
<rect width="96" height="96" rx="16" fill="#AFBACD" fill-opacity="0.15"/>
<path d="M48 72C61.2548 72 72 61.2548 72 48C72 34.7452 61.2548 24 48 24C34.7452 24 24 34.7452 24 48C24 61.2548 34.7452 72 48 72Z" fill="#DDE2E9"/>
<path d="M44.828 65.34L44.5537 63.9851L48.0316 63.2774C48.2909 63.22 48.5354 63.1094 48.7497 62.9527C48.9641 62.7959 49.1436 62.5964 49.2769 62.3668C49.5518 61.9192 49.6496 61.3851 49.5512 60.8692C49.549 60.8473 49.549 60.8252 49.5512 60.8033C49.4271 60.3007 49.1162 59.8642 48.6817 59.5828C48.4673 59.4388 48.2266 59.3385 47.9733 59.2877C47.7201 59.2369 47.4594 59.2365 47.206 59.2865L37.436 61.2751C37.3599 61.293 37.2809 61.2944 37.2043 61.2792C37.1277 61.2641 37.0552 61.2328 36.9916 61.1873C36.8677 61.0991 36.7808 60.9682 36.7475 60.8198C36.7273 60.7173 36.7349 60.6112 36.7694 60.5126L37.606 58.1592V58.1373C37.7086 57.754 37.7116 57.3509 37.6149 56.9661C37.5182 56.5814 37.3249 56.2276 37.0532 55.9384C36.7816 55.6492 36.4407 55.4341 36.0627 55.3135C35.6848 55.1929 35.2823 55.1707 34.8933 55.2491C34.5734 55.3135 34.2706 55.4445 34.0046 55.6335C33.7386 55.8225 33.5152 56.0653 33.3491 56.3462L31.0725 60.2136C29.8765 62.2475 29.4759 64.6521 29.948 66.9638C30.3777 69.0804 31.6303 70.9397 33.4305 72.133C35.2307 73.3263 37.4311 73.7558 39.548 73.3272C41.3079 72.9702 42.854 71.9288 43.8462 70.432C44.8385 68.9352 45.1955 67.1056 44.8389 65.3455L44.828 65.34Z" fill="#BABFC8"/>
<path d="M57.0352 36.7503C57.0352 36.7503 55.4 37.0512 53.482 38.2171C51.5639 39.383 50.3439 40.4648 50.3439 40.4648" stroke="#BABFC8" stroke-width="1.79211" stroke-linecap="round" stroke-linejoin="round"/>
<path d="M37.4064 42.7614C37.4064 42.7614 38.9961 42.3987 41.2384 42.2977C42.0292 42.2621 42.7375 42.3039 43.3231 42.373" stroke="#BABFC8" stroke-width="1.79211" stroke-linecap="round" stroke-linejoin="round"/>
<path d="M41.0625 49.5C42.5122 49.5 43.6875 48.3247 43.6875 46.875C43.6875 45.4253 42.5122 44.25 41.0625 44.25C39.6128 44.25 38.4375 45.4253 38.4375 46.875C38.4375 48.3247 39.6128 49.5 41.0625 49.5Z" fill="#BABFC8"/>
<rect x="52.9688" y="42" width="4.03125" height="7.03125" rx="2.01562" fill="#BABFC8"/>
<path d="M53.8701 57.0137C51.8866 55.671 49.4061 55.0443 46.8459 55.4381C46.3257 55.5181 45.8213 55.6373 45.3353 55.7922" stroke="#BABFC8" stroke-width="2.15054" stroke-linecap="round"/>
</svg>
