<svg width="96" height="96" viewBox="0 0 96 96" fill="none" xmlns="http://www.w3.org/2000/svg">
<rect width="96" height="96" rx="16" fill="#AFBACD" fill-opacity="0.15"/>
<g clip-path="url(#clip0_0_9997)">
<path d="M48 72C61.2548 72 72 61.2548 72 48C72 34.7452 61.2548 24 48 24C34.7452 24 24 34.7452 24 48C24 61.2548 34.7452 72 48 72Z" fill="#DDE2E9"/>
<path d="M41.8125 45.75C43.2622 45.75 44.4375 44.5747 44.4375 43.125C44.4375 41.6753 43.2622 40.5 41.8125 40.5C40.3628 40.5 39.1875 41.6753 39.1875 43.125C39.1875 44.5747 40.3628 45.75 41.8125 45.75Z" fill="#BABFC8"/>
<path d="M54.1875 45.75C55.6372 45.75 56.8125 44.5747 56.8125 43.125C56.8125 41.6753 55.6372 40.5 54.1875 40.5C52.7378 40.5 51.5625 41.6753 51.5625 43.125C51.5625 44.5747 52.7378 45.75 54.1875 45.75Z" fill="#BABFC8"/>
<path d="M58.5 53.9062C56.5135 57.5871 52.5777 60.0938 48.0469 60.0938C43.5161 60.0938 39.5803 57.5871 37.5938 53.9062" stroke="#BABFC8" stroke-width="2.15054" stroke-linecap="round"/>
</g>
<defs>
<clipPath id="clip0_0_9997">
<rect width="48" height="48" fill="white" transform="translate(24 24)"/>
</clipPath>
</defs>
</svg>
