<svg width="24" height="24" viewBox="0 0 24 24" fill="none" xmlns="http://www.w3.org/2000/svg">
<g clip-path="url(#clip0_1669_7295)">
<path d="M12 24C18.6274 24 24 18.6274 24 12C24 5.37258 18.6274 0 12 0C5.37258 0 0 5.37258 0 12C0 18.6274 5.37258 24 12 24Z" fill="#FBC85B"/>
<path d="M8.90625 10.875C9.63112 10.875 10.2188 10.2874 10.2188 9.5625C10.2188 8.83763 9.63112 8.25 8.90625 8.25C8.18138 8.25 7.59375 8.83763 7.59375 9.5625C7.59375 10.2874 8.18138 10.875 8.90625 10.875Z" fill="#3E414D"/>
<path d="M15.0938 10.875C15.8186 10.875 16.4063 10.2874 16.4063 9.5625C16.4063 8.83763 15.8186 8.25 15.0938 8.25C14.3689 8.25 13.7812 8.83763 13.7812 9.5625C13.7812 10.2874 14.3689 10.875 15.0938 10.875Z" fill="#3E414D"/>
<path d="M17.25 14.9531C16.2567 16.7935 14.2888 18.0469 12.0234 18.0469C9.75804 18.0469 7.79015 16.7935 6.79688 14.9531" stroke="#9A695E" stroke-width="1.07527" stroke-linecap="round"/>
</g>
<defs>
<clipPath id="clip0_1669_7295">
<rect width="24" height="24" fill="white"/>
</clipPath>
</defs>
</svg>
