<svg width="24" height="24" viewBox="0 0 24 24" fill="none" xmlns="http://www.w3.org/2000/svg">
<g clip-path="url(#clip0_1669_7303)">
<path d="M12 24C18.6274 24 24 18.6274 24 12C24 5.37258 18.6274 0 12 0C5.37258 0 0 5.37258 0 12C0 18.6274 5.37258 24 12 24Z" fill="#FBC85B"/>
<path d="M16.3577 16.3332C16.3469 16.8838 15.8636 18.2217 14.1527 19.0506C13.4815 19.3772 12.7456 19.5469 12 19.5469C11.2544 19.5469 10.5185 19.3772 9.84732 19.0506C8.13348 18.2246 7.65313 16.8838 7.64226 16.3332C7.62249 16.0241 7.78063 15.6543 8.1997 15.7726C8.88366 16.0231 9.95703 16.1702 10.7892 16.2467C11.5946 16.3232 12.4054 16.3232 13.2108 16.2467C14.043 16.1672 15.1163 16.0231 15.8003 15.7726C16.2194 15.6543 16.3775 16.0241 16.3577 16.3332Z" fill="#9A695E"/>
<path d="M13.257 7.54517C13.0834 8.19697 13.1658 8.85793 13.519 9.62723C13.8337 10.3156 14.351 11.0663 14.9507 11.9352C15.1553 12.2321 15.386 12.5693 15.6249 12.9245C15.6883 13.0185 15.7834 13.0866 15.8928 13.1165C16.0028 13.1469 16.1202 13.1353 16.2222 13.084C16.6076 12.8945 16.9687 12.7149 17.3021 12.5647C18.2559 12.1114 19.0792 11.72 19.6958 11.2826C20.3859 10.7916 20.7882 10.2612 20.9634 9.60896C21.1364 9.00429 21.0746 8.35657 20.7903 7.79557C20.6521 7.52959 20.4595 7.29562 20.2251 7.10882C19.9907 6.92202 19.7196 6.78657 19.4295 6.71125C18.9892 6.59065 18.521 6.62425 18.1025 6.80646C17.8762 6.90184 17.6649 7.02963 17.4754 7.18581C17.3894 6.95588 17.271 6.73938 17.1239 6.54285C16.8521 6.17862 16.465 5.91707 16.0256 5.80074C15.7365 5.72148 15.4341 5.70352 15.1377 5.74801C14.8413 5.79249 14.5574 5.89844 14.3044 6.05906C13.781 6.40533 13.4071 6.93585 13.257 7.54517Z" fill="#E46E80"/>
<path d="M9.69319 6.06719C9.44012 5.90657 9.15628 5.80062 8.85986 5.75614C8.56345 5.71165 8.26101 5.72961 7.97195 5.80887C7.53258 5.9252 7.1455 6.18675 6.87364 6.55098C6.72652 6.74751 6.60817 6.96401 6.52215 7.19394C6.33263 7.03776 6.1214 6.90997 5.8951 6.81459C5.47657 6.63238 5.0083 6.59878 4.56805 6.71938C4.27793 6.7947 4.00687 6.93015 3.77245 7.11695C3.53804 7.30375 3.34549 7.53772 3.20729 7.8037C2.92297 8.3647 2.86114 9.01242 3.03417 9.61709C3.20938 10.2693 3.61165 10.7998 4.30179 11.2907C4.91835 11.7281 5.74168 12.1195 6.69549 12.5729C7.02089 12.7277 7.38992 12.9027 7.77535 13.0922C7.87734 13.1434 7.99474 13.155 8.10478 13.1246C8.21417 13.0948 8.30921 13.0267 8.37263 12.9327C8.61154 12.5774 8.84222 12.2402 9.04687 11.9434C9.64659 11.0744 10.1576 10.322 10.4785 9.63536C10.8318 8.86606 10.9142 8.2051 10.7405 7.5533C10.5904 6.94398 10.2165 6.41346 9.69319 6.06719Z" fill="#E46E80"/>
</g>
<defs>
<clipPath id="clip0_1669_7303">
<rect width="24" height="24" fill="white"/>
</clipPath>
</defs>
</svg>
