<svg width="24" height="25" viewBox="0 0 24 25" fill="none" xmlns="http://www.w3.org/2000/svg">
<path d="M12 24.0002C18.6274 24.0002 24 18.6276 24 12.0002C24 5.37277 18.6274 0.000183105 12 0.000183105C5.37258 0.000183105 0 5.37277 0 12.0002C0 18.6276 5.37258 24.0002 12 24.0002Z" fill="#FBC85B"/>
<path d="M10.4135 20.672L10.2763 19.9945L12.0153 19.6407C12.1449 19.6119 12.2672 19.5567 12.3744 19.4783C12.4815 19.3999 12.5713 19.3002 12.6379 19.1853C12.7754 18.9616 12.8243 18.6945 12.7751 18.4365C12.774 18.4256 12.774 18.4146 12.7751 18.4036C12.7131 18.1523 12.5576 17.9341 12.3403 17.7933C12.2331 17.7213 12.1128 17.6712 11.9862 17.6458C11.8596 17.6204 11.7292 17.6202 11.6025 17.6452L6.71749 18.6395C6.67947 18.6484 6.63998 18.6491 6.60166 18.6416C6.56335 18.634 6.52709 18.6183 6.49532 18.5956C6.43337 18.5515 6.38991 18.4861 6.37326 18.4119C6.36318 18.3606 6.36697 18.3076 6.38423 18.2583L6.80252 17.0816V17.0706C6.8538 16.879 6.85533 16.6774 6.80697 16.485C6.75861 16.2926 6.66194 16.1158 6.52613 15.9712C6.39032 15.8266 6.21986 15.719 6.03087 15.6587C5.84189 15.5984 5.64064 15.5873 5.44617 15.6265C5.28622 15.6587 5.13483 15.7242 5.00182 15.8187C4.8688 15.9132 4.75714 16.0346 4.67406 16.1751L3.53577 18.1088C2.93777 19.1257 2.73746 20.328 2.97349 21.4839C3.18835 22.5422 3.81468 23.4718 4.71478 24.0684C5.61488 24.6651 6.71508 24.8799 7.77349 24.6656C8.65347 24.4871 9.42652 23.9664 9.92263 23.2179C10.4187 22.4695 10.5973 21.5547 10.419 20.6747L10.4135 20.672Z" fill="#E8AA26"/>
<path d="M16.5166 6.37515C16.5166 6.37515 15.699 6.52559 14.74 7.10855C13.781 7.69151 13.171 8.23242 13.171 8.23242" stroke="#3E414D" stroke-width="0.896057" stroke-linecap="round" stroke-linejoin="round"/>
<path d="M6.70245 9.38167C6.70245 9.38167 7.4973 9.20034 8.61847 9.14983C9.01388 9.13201 9.36801 9.15293 9.6608 9.18747" stroke="#3E414D" stroke-width="0.896057" stroke-linecap="round" stroke-linejoin="round"/>
<path d="M8.53125 12.75C9.25612 12.75 9.84375 12.1624 9.84375 11.4375C9.84375 10.7126 9.25612 10.125 8.53125 10.125C7.80638 10.125 7.21875 10.7126 7.21875 11.4375C7.21875 12.1624 7.80638 12.75 8.53125 12.75Z" fill="#3E414D"/>
<rect x="14.4844" y="9.00037" width="2.01563" height="3.51562" rx="1.00781" fill="#494D59"/>
<path d="M14.9355 16.5059C13.9438 15.8345 12.7035 15.5212 11.4234 15.7181C11.1633 15.7581 10.9111 15.8177 10.6681 15.8951" stroke="#9A695E" stroke-width="1.07527" stroke-linecap="round"/>
</svg>
