<svg width="24" height="24" viewBox="0 0 24 24" fill="none" xmlns="http://www.w3.org/2000/svg">
<path d="M12 24C18.6274 24 24 18.6274 24 12C24 5.37258 18.6274 0 12 0C5.37258 0 0 5.37258 0 12C0 18.6274 5.37258 24 12 24Z" fill="#E46E80"/>
<path d="M20.1289 14.3203H3.87087C3.44327 14.3203 3.09668 14.667 3.09668 15.0945V20.5139C3.09668 20.9415 3.44332 21.288 3.87087 21.288H20.1289C20.5565 21.288 20.9031 20.9414 20.9031 20.5139V15.0945C20.9031 14.667 20.5565 14.3203 20.1289 14.3203Z" fill="#494D59"/>
<path d="M18.5476 18.7763L18.8545 18.4693C19.0058 18.3181 19.0058 18.0731 18.8545 17.922C18.7033 17.7707 18.4583 17.7707 18.3072 17.922L18.0002 18.2289L17.729 17.9577C18.0095 17.7455 18.1938 17.4123 18.1938 17.0343C18.1938 16.394 17.6729 15.873 17.0325 15.873C16.3921 15.873 15.8712 16.394 15.8712 17.0343C15.8712 17.1584 15.8959 17.2756 15.9321 17.3878C15.6242 17.6684 15.4533 18.0808 15.4891 18.5063C15.548 19.2004 16.1665 19.744 16.8972 19.744C17.3014 19.744 17.6938 19.5864 17.994 19.3174L18.3072 19.6305C18.3828 19.7062 18.4818 19.7439 18.5809 19.7439C18.6799 19.7439 18.779 19.7062 18.8546 19.6305C19.0058 19.4793 19.0058 19.2344 18.8546 19.0832L18.5476 18.7763ZM17.0325 16.6472C17.2461 16.6472 17.4196 16.8208 17.4196 17.0343C17.4196 17.2479 17.2461 17.4214 17.0325 17.4214C16.8189 17.4214 16.6454 17.2479 16.6454 17.0343C16.6454 16.8207 16.8189 16.6472 17.0325 16.6472ZM16.8972 18.9698C16.5709 18.9698 16.2852 18.7324 16.2602 18.4413C16.2467 18.2782 16.3014 18.1249 16.404 18.0081C16.5377 18.0947 16.6904 18.1521 16.8542 18.1776L17.4466 18.77C17.2918 18.8956 17.0976 18.9698 16.8972 18.9698Z" fill="#F9FAFC"/>
<path d="M8.36079 15.9503C8.18993 15.8225 7.94721 15.8566 7.8191 16.0278L5.49654 19.1246C5.368 19.2955 5.40279 19.5382 5.57402 19.6663C5.64358 19.7185 5.72486 19.7438 5.80577 19.7438C5.92371 19.7438 6.03977 19.6905 6.11575 19.5888L8.43832 16.492C8.5668 16.3211 8.53202 16.0785 8.36079 15.9503Z" fill="#F9FAFC"/>
<path d="M10.0648 18.5827C10.2788 18.5827 10.4519 18.4095 10.4519 18.1956V16.2601C10.4519 16.0462 10.2788 15.873 10.0648 15.873C9.85084 15.873 9.67773 16.0462 9.67773 16.2601V18.1956C9.67773 18.4096 9.85084 18.5827 10.0648 18.5827Z" fill="#F9FAFC"/>
<path d="M10.0648 18.9668C9.85084 18.9668 9.67773 19.14 9.67773 19.3539C9.67773 19.5678 9.85089 19.741 10.0648 19.741H10.0686C10.2826 19.741 10.4538 19.5678 10.4538 19.3539C10.4538 19.14 10.2788 18.9668 10.0648 18.9668Z" fill="#F9FAFC"/>
<path d="M14.7094 16.6478H14.6244L14.6977 16.3545C14.7499 16.1473 14.6236 15.9371 14.4161 15.8853C14.2086 15.8317 13.9988 15.9591 13.947 16.167L13.8267 16.6478H13.076L13.1494 16.3545C13.2016 16.1473 13.0753 15.9371 12.8678 15.8853C12.6594 15.8317 12.4501 15.9591 12.3986 16.167L12.2784 16.6478H11.9998C11.7858 16.6478 11.6127 16.821 11.6127 17.0349C11.6127 17.2488 11.7858 17.422 11.9998 17.422H12.0849L11.8913 18.1962H11.6127C11.3987 18.1962 11.2256 18.3693 11.2256 18.5833C11.2256 18.7972 11.3987 18.9704 11.6127 18.9704H11.6978L11.6244 19.2637C11.5722 19.4708 11.6985 19.681 11.906 19.7328C11.9374 19.7408 11.9692 19.7445 12.0001 19.7445C12.1737 19.7445 12.3313 19.6274 12.3751 19.4512L12.4954 18.9704H13.2461L13.1728 19.2637C13.1206 19.4708 13.2469 19.681 13.4544 19.7328C13.4858 19.7408 13.5175 19.7445 13.5485 19.7445C13.7221 19.7445 13.8797 19.6274 13.9235 19.4512L14.0438 18.9704H14.3224C14.5364 18.9704 14.7095 18.7972 14.7095 18.5833C14.7095 18.3693 14.5363 18.1962 14.3224 18.1962H14.2373L14.4309 17.422H14.7095C14.9235 17.422 15.0966 17.2488 15.0966 17.0349C15.0966 16.821 14.9234 16.6478 14.7094 16.6478ZM13.4397 18.1962H12.6889L12.8825 17.422H13.6332L13.4397 18.1962Z" fill="#F9FAFC"/>
<path d="M6.5806 16.6472C6.5806 16.2204 6.23321 15.873 5.80641 15.873C5.37962 15.873 5.03223 16.2204 5.03223 16.6472C5.03223 17.074 5.37962 17.4214 5.80641 17.4214C6.23321 17.4214 6.5806 17.074 6.5806 16.6472Z" fill="#F9FAFC"/>
<path d="M8.12917 18.1934C7.70237 18.1934 7.35498 18.5407 7.35498 18.9675C7.35498 19.3943 7.70237 19.7417 8.12917 19.7417C8.55596 19.7417 8.90336 19.3943 8.90336 18.9675C8.90336 18.5407 8.55596 18.1934 8.12917 18.1934Z" fill="#F9FAFC"/>
<path d="M17.8809 6.53612C17.7489 6.34454 17.5296 6.33768 17.2949 6.42761C17.2949 6.42761 16.235 6.91286 15.5841 7.07815C14.9332 7.24344 13.8732 7.39616 13.8732 7.39616C13.6606 7.43803 13.4195 7.62071 13.4334 7.85322C13.4474 8.08579 13.6473 8.26302 13.8798 8.24906L13.9237 8.24598C13.9504 8.24395 13.9889 8.2408 14.0381 8.23619C14.1364 8.22699 14.2778 8.21196 14.4537 8.18843C14.8051 8.14141 15.2962 8.06021 15.8587 7.92303C16.4393 7.78142 16.9121 7.58506 17.2412 7.42321C17.406 7.34216 17.5356 7.26939 17.6255 7.21582C17.6705 7.18902 17.7056 7.16698 17.7304 7.15105L17.773 7.12289C17.9648 6.99068 18.0131 6.72797 17.8809 6.53612Z" fill="#3E414D"/>
<path d="M6.10882 6.53612C6.24086 6.34454 6.46019 6.33768 6.6948 6.42761C6.6948 6.42761 7.75473 6.91286 8.40563 7.07815C9.05653 7.24344 10.1165 7.39616 10.1165 7.39616C10.3292 7.43803 10.5703 7.62071 10.5563 7.85322C10.5423 8.08579 10.3425 8.26302 10.1099 8.24906L10.0661 8.24598C10.0394 8.24395 10.0009 8.2408 9.95168 8.23619C9.85331 8.22699 9.71194 8.21196 9.53605 8.18843C9.1846 8.14141 8.69352 8.06021 8.13107 7.92303C7.55042 7.78142 7.07769 7.58506 6.74856 7.42321C6.58375 7.34216 6.45418 7.26939 6.36426 7.21582C6.31927 7.18902 6.28413 7.16698 6.25939 7.15105L6.21679 7.12289C6.02494 6.99068 5.9766 6.72797 6.10882 6.53612Z" fill="#3E414D"/>
<path d="M8.90625 11.9998C9.63112 11.9998 10.2188 11.4121 10.2188 10.6873C10.2188 9.96238 9.63112 9.37476 8.90625 9.37476C8.18138 9.37476 7.59375 9.96238 7.59375 10.6873C7.59375 11.4121 8.18138 11.9998 8.90625 11.9998Z" fill="#3E414D"/>
<path d="M15.0938 11.9998C15.8186 11.9998 16.4063 11.4121 16.4063 10.6873C16.4063 9.96238 15.8186 9.37476 15.0938 9.37476C14.3689 9.37476 13.7812 9.96238 13.7812 10.6873C13.7812 11.4121 14.3689 11.9998 15.0938 11.9998Z" fill="#3E414D"/>
</svg>
