<svg width="24" height="24" viewBox="0 0 24 24" fill="none" xmlns="http://www.w3.org/2000/svg">
<g clip-path="url(#clip0_1669_7322)">
<path d="M12 24C18.6274 24 24 18.6274 24 12C24 5.37258 18.6274 0 12 0C5.37258 0 0 5.37258 0 12C0 18.6274 5.37258 24 12 24Z" fill="#FBC85B"/>
<path d="M9.66481 17.3081C9.66481 18.6933 8.62252 19.8151 7.33338 19.8151C6.04424 19.8151 5.00195 18.6933 5.00195 17.3081C5.00195 16.211 6.4543 14.2238 7.0591 13.4352C7.08967 13.3935 7.12962 13.3597 7.17573 13.3363C7.22183 13.313 7.27279 13.3008 7.32447 13.3008C7.37615 13.3008 7.4271 13.313 7.47321 13.3363C7.51931 13.3597 7.55927 13.3935 7.58984 13.4352C8.21247 14.2238 9.66481 16.2151 9.66481 17.3081Z" fill="#5195EE"/>
<path d="M8.90625 10.8752C9.63112 10.8752 10.2188 10.2876 10.2188 9.56268C10.2188 8.83781 9.63112 8.25018 8.90625 8.25018C8.18138 8.25018 7.59375 8.83781 7.59375 9.56268C7.59375 10.2876 8.18138 10.8752 8.90625 10.8752Z" fill="#3E414D"/>
<path d="M15.0938 10.8752C15.8186 10.8752 16.4063 10.2876 16.4063 9.56268C16.4063 8.83781 15.8186 8.25018 15.0938 8.25018C14.3689 8.25018 13.7812 8.83781 13.7812 9.56268C13.7812 10.2876 14.3689 10.8752 15.0938 10.8752Z" fill="#3E414D"/>
<path d="M15.375 17.5316C14.4968 16.7173 13.3186 16.2191 12.0234 16.2191C11.7603 16.2191 11.502 16.2396 11.25 16.2792" stroke="#9A695E" stroke-width="1.43369" stroke-linecap="round"/>
</g>
<defs>
<clipPath id="clip0_1669_7322">
<rect width="24" height="24" fill="white"/>
</clipPath>
</defs>
</svg>
