<svg width="96" height="96" viewBox="0 0 96 96" fill="none" xmlns="http://www.w3.org/2000/svg">
<rect width="96" height="96" rx="16" fill="#AFBACD" fill-opacity="0.15"/>
<path d="M48 72C61.2548 72 72 61.2548 72 48C72 34.7452 61.2548 24 48 24C34.7452 24 24 34.7452 24 48C24 61.2548 34.7452 72 48 72Z" fill="#FBC85B"/>
<path d="M44.8281 65.34L44.5538 63.9851L48.0317 63.2774C48.291 63.22 48.5355 63.1094 48.7498 62.9527C48.9642 62.7959 49.1437 62.5964 49.277 62.3668C49.5519 61.9192 49.6497 61.3851 49.5513 60.8692C49.5491 60.8473 49.5491 60.8252 49.5513 60.8033C49.4272 60.3007 49.1163 59.8642 48.6818 59.5828C48.4674 59.4388 48.2267 59.3385 47.9734 59.2877C47.7202 59.2369 47.4595 59.2365 47.2061 59.2865L37.4361 61.2751C37.36 61.293 37.281 61.2944 37.2044 61.2792C37.1278 61.2641 37.0553 61.2328 36.9917 61.1873C36.8678 61.0991 36.7809 60.9682 36.7476 60.8198C36.7274 60.7173 36.735 60.6112 36.7695 60.5126L37.6061 58.1592V58.1373C37.7087 57.754 37.7118 57.3509 37.615 56.9661C37.5183 56.5814 37.325 56.2276 37.0533 55.9384C36.7817 55.6492 36.4408 55.4341 36.0628 55.3135C35.6849 55.1929 35.2824 55.1707 34.8934 55.2491C34.5735 55.3135 34.2707 55.4445 34.0047 55.6335C33.7387 55.8225 33.5154 56.0653 33.3492 56.3462L31.0726 60.2136C29.8766 62.2475 29.476 64.6521 29.9481 66.9638C30.3778 69.0804 31.6304 70.9397 33.4306 72.133C35.2308 73.3263 37.4312 73.7558 39.5481 73.3272C41.308 72.9702 42.8541 71.9288 43.8463 70.432C44.8386 68.9352 45.1956 67.1056 44.839 65.3455L44.8281 65.34Z" fill="#E8AA26"/>
<path d="M57.0352 36.7503C57.0352 36.7503 55.4 37.0512 53.482 38.2171C51.5639 39.383 50.3439 40.4648 50.3439 40.4648" stroke="#3E414D" stroke-width="1.79211" stroke-linecap="round" stroke-linejoin="round"/>
<path d="M37.4059 42.7614C37.4059 42.7614 38.9956 42.3987 41.2379 42.2977C42.0287 42.2621 42.737 42.3039 43.3226 42.373" stroke="#3E414D" stroke-width="1.79211" stroke-linecap="round" stroke-linejoin="round"/>
<path d="M41.0625 49.5C42.5122 49.5 43.6875 48.3247 43.6875 46.875C43.6875 45.4253 42.5122 44.25 41.0625 44.25C39.6128 44.25 38.4375 45.4253 38.4375 46.875C38.4375 48.3247 39.6128 49.5 41.0625 49.5Z" fill="#3E414D"/>
<rect x="52.9688" y="42" width="4.03125" height="7.03125" rx="2.01562" fill="#494D59"/>
<path d="M53.8701 57.0137C51.8866 55.671 49.4061 55.0443 46.8459 55.4381C46.3257 55.5181 45.8213 55.6373 45.3353 55.7922" stroke="#9A695E" stroke-width="2.15054" stroke-linecap="round"/>
</svg>
