<svg width="27" height="27" viewBox="0 0 27 27" fill="none" xmlns="http://www.w3.org/2000/svg">
<path d="M25.04 7.12L14.7734 2.12842C14.6057 2.04689 14.4108 2.04255 14.2396 2.11651L2.66204 7.12L14.2121 12.7355C14.3985 12.8262 14.6172 12.8209 14.7991 12.7215L25.04 7.12Z" fill="#373737"/>
<path d="M2.66204 7.12L14.2121 12.7355C14.3985 12.8262 14.6172 12.8209 14.7991 12.7215L25.04 7.12L14.7734 2.12842C14.6057 2.04689 14.4108 2.04255 14.2396 2.11651L2.66204 7.12ZM2.66204 7.12C2.66204 7.12 2.05427 8.65066 2.00386 9.68C1.94152 10.953 2.66204 12.88 2.66204 12.88M25.04 12.88L14.7991 18.4815C14.6172 18.5809 14.3985 18.5862 14.2121 18.4955L2.66204 12.88M2.66204 12.88C2.66204 12.88 2.00386 14.8056 2.00386 16.08C2.00386 17.3544 2.66204 19.28 2.66204 19.28L14.2121 24.8955C14.3985 24.9862 14.6172 24.9809 14.7991 24.8815L25.04 19.28" stroke="#373737" stroke-width="2.56" stroke-linecap="round" stroke-linejoin="round"/>
</svg>
