<svg xmlns="http://www.w3.org/2000/svg" xmlns:xlink="http://www.w3.org/1999/xlink" width="1080" zoomAndPan="magnify" viewBox="0 0 810 809.999993" height="1080" preserveAspectRatio="xMidYMid meet" version="1.0"><defs><clipPath id="fe11515451"><path d="M 222 81 L 716.996094 81 L 716.996094 650 L 222 650 Z M 222 81 " clip-rule="nonzero"/></clipPath><clipPath id="e6dea8534a"><path d="M 110.996094 187 L 605 187 L 605 756 L 110.996094 756 Z M 110.996094 187 " clip-rule="nonzero"/></clipPath><clipPath id="f9da2e6255"><path d="M 496 81 L 716.996094 81 L 716.996094 271 L 496 271 Z M 496 81 " clip-rule="nonzero"/></clipPath></defs><g clip-path="url(#fe11515451)"><path fill="#d9d9d9" d="M 254.222656 81.367188 C 236.75 81.367188 222.683594 95.433594 222.683594 112.90625 L 222.683594 617.570312 C 222.683594 635.042969 236.75 649.109375 254.222656 649.109375 L 685.289062 649.109375 C 702.761719 649.109375 716.832031 635.042969 716.832031 617.570312 L 716.832031 291.640625 L 506.554688 291.640625 C 489.082031 291.640625 475.011719 277.574219 475.011719 260.101562 L 475.011719 81.367188 Z M 254.222656 81.367188 " fill-opacity="1" fill-rule="nonzero"/></g><g clip-path="url(#e6dea8534a)"><path fill="#d9d9d9" d="M 142.355469 187.660156 C 124.882812 187.660156 110.816406 201.726562 110.816406 219.203125 L 110.816406 723.863281 C 110.816406 741.339844 124.882812 755.40625 142.355469 755.40625 L 573.421875 755.40625 C 590.894531 755.40625 604.964844 741.339844 604.964844 723.863281 L 604.964844 687.066406 L 221.210938 687.066406 C 203.734375 687.066406 189.667969 673 189.667969 655.523438 L 189.667969 187.660156 Z M 142.355469 187.660156 " fill-opacity="1" fill-rule="nonzero"/></g><g clip-path="url(#f9da2e6255)"><path fill="#d9d9d9" d="M 496.039062 81.367188 L 496.039062 239.074219 C 496.039062 256.546875 510.109375 270.613281 527.582031 270.613281 L 716.832031 270.613281 Z M 496.039062 81.367188 " fill-opacity="1" fill-rule="nonzero"/></g></svg>