<svg width="48" height="48" viewBox="0 0 48 48" fill="none" xmlns="http://www.w3.org/2000/svg">
<path d="M24 48C37.2548 48 48 37.2548 48 24C48 10.7452 37.2548 0 24 0C10.7452 0 0 10.7452 0 24C0 37.2548 10.7452 48 24 48Z" fill="#E46E80"/>
<path d="M40.2578 28.6445H7.74173C6.88655 28.6445 6.19336 29.3378 6.19336 30.1929V41.0316C6.19336 41.8868 6.88664 42.58 7.74173 42.58H40.2579C41.1131 42.58 41.8063 41.8867 41.8063 41.0316V30.193C41.8062 29.3378 41.113 28.6445 40.2578 28.6445Z" fill="#494D59"/>
<path d="M37.0947 37.5486L37.7086 36.9347C38.011 36.6323 38.011 36.1423 37.7086 35.84C37.4061 35.5376 36.9162 35.5376 36.6139 35.84L36 36.4539L35.4576 35.9114C36.0185 35.487 36.3871 34.8208 36.3871 34.0648C36.3871 32.784 35.3452 31.7422 34.0645 31.7422C32.7838 31.7422 31.742 32.784 31.742 34.0648C31.742 34.3128 31.7914 34.5474 31.8637 34.7717C31.248 35.3329 30.9062 36.1577 30.9776 37.0088C31.0956 38.3968 32.3325 39.4841 33.7939 39.4841C34.6024 39.4841 35.3871 39.1689 35.9875 38.6308L36.6139 39.2572C36.7651 39.4084 36.9632 39.484 37.1613 39.484C37.3594 39.484 37.5575 39.4084 37.7087 39.2572C38.0111 38.9548 38.0111 38.4648 37.7087 38.1625L37.0947 37.5486ZM34.0645 33.2906C34.4916 33.2906 34.8387 33.6376 34.8387 34.0648C34.8387 34.4919 34.4916 34.8389 34.0645 34.8389C33.6374 34.8389 33.2903 34.4919 33.2903 34.0648C33.2903 33.6375 33.6373 33.2906 34.0645 33.2906ZM33.7939 37.9357C33.1414 37.9357 32.5699 37.4608 32.5199 36.8788C32.4929 36.5524 32.6023 36.2459 32.8075 36.0123C33.0749 36.1855 33.3803 36.3002 33.7079 36.3513L34.8927 37.5361C34.5831 37.7874 34.1947 37.9357 33.7939 37.9357Z" fill="#F9FAFC"/>
<path d="M16.7221 31.8967C16.3803 31.6412 15.8949 31.7092 15.6387 32.0517L10.9936 38.2453C10.7365 38.587 10.8061 39.0724 11.1485 39.3287C11.2877 39.433 11.4502 39.4836 11.612 39.4836C11.8479 39.4836 12.08 39.377 12.232 39.1737L16.8771 32.9801C17.1341 32.6384 17.0645 32.153 16.7221 31.8967Z" fill="#F9FAFC"/>
<path d="M20.1292 37.1615C20.5571 37.1615 20.9034 36.8152 20.9034 36.3873V32.5164C20.9034 32.0884 20.557 31.7422 20.1292 31.7422C19.7012 31.7422 19.355 32.0885 19.355 32.5164V36.3873C19.355 36.8153 19.7012 37.1615 20.1292 37.1615Z" fill="#F9FAFC"/>
<path d="M20.1292 37.9355C19.7012 37.9355 19.355 38.2819 19.355 38.7097C19.355 39.1376 19.7013 39.4839 20.1292 39.4839H20.1368C20.5647 39.4839 20.9072 39.1376 20.9072 38.7097C20.9072 38.2819 20.557 37.9355 20.1292 37.9355Z" fill="#F9FAFC"/>
<path d="M29.4193 33.2897H29.2492L29.3959 32.703C29.5003 32.2888 29.2477 31.8684 28.8327 31.7648C28.4176 31.6575 27.998 31.9123 27.8944 32.328L27.6539 33.2897H26.1525L26.2993 32.703C26.4036 32.2888 26.151 31.8684 25.736 31.7648C25.3194 31.6575 24.9006 31.9123 24.7978 32.328L24.5573 33.2897H24C23.5721 33.2897 23.2258 33.636 23.2258 34.0639C23.2258 34.4918 23.5722 34.8381 24 34.8381H24.1702L23.7831 36.3865H23.2258C22.7979 36.3865 22.4517 36.7328 22.4517 37.1607C22.4517 37.5885 22.798 37.9349 23.2258 37.9349H23.396L23.2493 38.5215C23.1449 38.9358 23.3975 39.3562 23.8125 39.4598C23.8753 39.4756 23.9388 39.4832 24.0008 39.4832C24.3478 39.4832 24.6631 39.2489 24.7508 38.8965L24.9913 37.9349H26.4928L26.346 38.5215C26.2417 38.9358 26.4943 39.3562 26.9093 39.4598C26.972 39.4756 27.0356 39.4832 27.0975 39.4832C27.4446 39.4832 27.7599 39.2489 27.8475 38.8965L28.088 37.9349H28.6453C29.0732 37.9349 29.4194 37.5885 29.4194 37.1607C29.4194 36.7328 29.0731 36.3865 28.6453 36.3865H28.4751L28.8622 34.8381H29.4194C29.8474 34.8381 30.1936 34.4918 30.1936 34.0639C30.1936 33.636 29.8473 33.2897 29.4193 33.2897ZM26.8798 36.3865H25.3783L25.7654 34.8381H27.2669L26.8798 36.3865Z" fill="#F9FAFC"/>
<path d="M13.1612 33.2906C13.1612 32.437 12.4664 31.7422 11.6128 31.7422C10.7592 31.7422 10.0645 32.437 10.0645 33.2906C10.0645 34.1442 10.7592 34.8389 11.6128 34.8389C12.4664 34.8389 13.1612 34.1442 13.1612 33.2906Z" fill="#F9FAFC"/>
<path d="M16.2578 36.3867C15.4043 36.3867 14.7095 37.0815 14.7095 37.9351C14.7095 38.7887 15.4043 39.4835 16.2578 39.4835C17.1114 39.4835 17.8062 38.7887 17.8062 37.9351C17.8062 37.0815 17.1114 36.3867 16.2578 36.3867Z" fill="#F9FAFC"/>
<path d="M35.7618 13.0742C35.4978 12.691 35.0591 12.6773 34.5899 12.8572C34.5899 12.8572 32.47 13.8277 31.1682 14.1583C29.8664 14.4888 27.7464 14.7943 27.7464 14.7943C27.3211 14.878 26.839 15.2434 26.8669 15.7084C26.8948 16.1735 27.2945 16.528 27.7597 16.5001L27.8473 16.4939C27.9008 16.4898 27.9777 16.4835 28.0761 16.4743C28.2729 16.4559 28.5556 16.4259 28.9074 16.3788C29.6103 16.2848 30.5925 16.1224 31.7174 15.848C32.8787 15.5648 33.8241 15.1721 34.4824 14.8484C34.812 14.6863 35.0711 14.5407 35.251 14.4336C35.3409 14.38 35.4112 14.3359 35.4607 14.3041L35.5459 14.2477C35.9296 13.9833 36.0263 13.4579 35.7618 13.0742Z" fill="#3E414D"/>
<path d="M12.2172 13.0742C12.4812 12.691 12.9199 12.6773 13.3891 12.8572C13.3891 12.8572 15.509 13.8277 16.8108 14.1583C18.1126 14.4888 20.2326 14.7943 20.2326 14.7943C20.6579 14.878 21.14 15.2434 21.1121 15.7084C21.0842 16.1735 20.6845 16.528 20.2193 16.5001L20.1317 16.4939C20.0783 16.4898 20.0013 16.4835 19.9029 16.4743C19.7061 16.4559 19.4234 16.4259 19.0716 16.3788C18.3687 16.2848 17.3865 16.1224 16.2616 15.848C15.1004 15.5648 14.1549 15.1721 13.4966 14.8484C13.167 14.6863 12.9079 14.5407 12.728 14.4336C12.6381 14.38 12.5678 14.3359 12.5183 14.3041L12.4331 14.2477C12.0494 13.9833 11.9527 13.4579 12.2172 13.0742Z" fill="#3E414D"/>
<path d="M17.8125 24C19.2622 24 20.4375 22.8247 20.4375 21.375C20.4375 19.9253 19.2622 18.75 17.8125 18.75C16.3628 18.75 15.1875 19.9253 15.1875 21.375C15.1875 22.8247 16.3628 24 17.8125 24Z" fill="#3E414D"/>
<path d="M30.1875 24C31.6372 24 32.8125 22.8247 32.8125 21.375C32.8125 19.9253 31.6372 18.75 30.1875 18.75C28.7378 18.75 27.5625 19.9253 27.5625 21.375C27.5625 22.8247 28.7378 24 30.1875 24Z" fill="#3E414D"/>
</svg>
