<svg width="48" height="50" viewBox="0 0 48 50" fill="none" xmlns="http://www.w3.org/2000/svg">
<path d="M24 48C37.2548 48 48 37.2548 48 24C48 10.7452 37.2548 0 24 0C10.7452 0 0 10.7452 0 24C0 37.2548 10.7452 48 24 48Z" fill="#FBC85B"/>
<path d="M20.828 41.34L20.5537 39.9851L24.0316 39.2774C24.2909 39.22 24.5354 39.1094 24.7497 38.9527C24.9641 38.7959 25.1436 38.5964 25.2769 38.3668C25.5518 37.9192 25.6496 37.3851 25.5512 36.8692C25.549 36.8473 25.549 36.8252 25.5512 36.8033C25.4271 36.3007 25.1162 35.8642 24.6817 35.5828C24.4673 35.4388 24.2266 35.3385 23.9733 35.2877C23.7201 35.2369 23.4594 35.2365 23.206 35.2865L13.436 37.2751C13.3599 37.293 13.2809 37.2944 13.2043 37.2792C13.1277 37.2641 13.0552 37.2328 12.9916 37.1873C12.8677 37.0991 12.7808 36.9682 12.7475 36.8198C12.7273 36.7173 12.7349 36.6112 12.7694 36.5126L13.606 34.1592V34.1373C13.7086 33.754 13.7116 33.3509 13.6149 32.9661C13.5182 32.5814 13.3249 32.2276 13.0532 31.9384C12.7816 31.6492 12.4407 31.4341 12.0627 31.3135C11.6848 31.1929 11.2823 31.1707 10.8933 31.2491C10.5734 31.3135 10.2706 31.4445 10.0046 31.6335C9.73858 31.8225 9.51525 32.0653 9.34909 32.3462L7.07252 36.2136C5.87651 38.2475 5.4759 40.6521 5.94795 42.9638C6.37768 45.0804 7.63034 46.9397 9.43054 48.133C11.2307 49.3263 13.4311 49.7558 15.548 49.3272C17.3079 48.9702 18.854 47.9288 19.8462 46.432C20.8385 44.9352 21.1955 43.1056 20.8389 41.3455L20.828 41.34Z" fill="#E8AA26"/>
<path d="M33.0352 12.7503C33.0352 12.7503 31.4 13.0512 29.482 14.2171C27.5639 15.383 26.3439 16.4648 26.3439 16.4648" stroke="#3E414D" stroke-width="1.79211" stroke-linecap="round" stroke-linejoin="round"/>
<path d="M13.4064 18.7614C13.4064 18.7614 14.9961 18.3987 17.2384 18.2977C18.0292 18.2621 18.7375 18.3039 19.3231 18.373" stroke="#3E414D" stroke-width="1.79211" stroke-linecap="round" stroke-linejoin="round"/>
<path d="M17.0625 25.5C18.5122 25.5 19.6875 24.3247 19.6875 22.875C19.6875 21.4253 18.5122 20.25 17.0625 20.25C15.6128 20.25 14.4375 21.4253 14.4375 22.875C14.4375 24.3247 15.6128 25.5 17.0625 25.5Z" fill="#3E414D"/>
<rect x="28.9688" y="18" width="4.03125" height="7.03125" rx="2.01562" fill="#494D59"/>
<path d="M29.8701 33.0137C27.8866 31.671 25.4061 31.0443 22.8459 31.4381C22.3257 31.5181 21.8213 31.6373 21.3353 31.7922" stroke="#9A695E" stroke-width="2.15054" stroke-linecap="round"/>
</svg>
