<?xml version="1.0" encoding="UTF-8"?>
<svg xmlns="http://www.w3.org/2000/svg" version="1.1" viewBox="0 0 512 512">
  <defs>
    <style>
      .cls-1 {
        fill: #fff;
        stroke: #fff;
        stroke-linecap: round;
        stroke-linejoin: round;
        stroke-width: 5px;
      }
    </style>
  </defs>
  <!-- Generator: Adobe Illustrator 28.6.0, SVG Export Plug-In . SVG Version: 1.2.0 Build 709)  -->
  <g>
    <g id="_레이어_1" data-name="레이어_1">
      <g>
        <path class="cls-1" d="M332.7,71c-7.5,5.9-52.4,51.7-53.5,54.7-.6,1.6-.9,4.3-.4,5.8,1,3.6,98.2,100.8,101.7,101.7s4.3.3,5.9-.4c4.3-1.6,56-53.7,56.9-57.3.4-1.6.4-4.3-.1-5.9-1-3.4-93.8-97.1-98.8-99.7-4.6-2.4-7.7-2.3-11.7,1Z"/>
        <path class="cls-1" d="M212.2,178.8c-29,14.6-53.7,27.4-54.9,28.5-1.8,1.8-88.9,217.1-88.9,219.7s29.9-29,66.4-65.5l66.3-66.3-1.8-5.9c-6.4-20.7,12.1-43.1,34.2-41.3,7,.6,15.7,4.4,20.8,9.3,4.8,4.5,9,13.9,9.7,21.3,1.8,22-20.6,40.4-41.3,34l-5.9-1.8-66.3,66.3c-36.5,36.5-66,66.4-65.5,66.4,2.6,0,218-87.1,219.7-88.9s14.1-26.1,28.6-55.4l26.6-53.2-47-47c-25.7-25.7-47.1-46.8-47.5-46.8-.4.1-24.4,12.1-53.4,26.5Z"/>
        <path class="cls-1" d="M223.5,273.5c-6.8,6.7-2,18.2,7.5,18.2s10.7-4.5,10.7-10.7-1-5.5-3.1-7.5c-2-2.1-4.4-3.1-7.5-3.1s-5.5,1-7.5,3.1Z"/>
      </g>
    </g>
  </g>
</svg>