<?xml version="1.0" encoding="UTF-8"?>
<svg xmlns="http://www.w3.org/2000/svg" version="1.1" viewBox="0 0 48 48">
  <defs>
    <style>
      .cls-1 {
        fill: none;
      }
    </style>
  </defs>
  <!-- Generator: Adobe Illustrator 28.6.0, SVG Export Plug-In . SVG Version: 1.2.0 Build 709)  -->
  <g>
    <g id="_레이어_1" data-name="레이어_1">
      <path class="cls-1" d="M0,0h48v48H0V0Z"/>
      <path d="M38.9,26c0-.6.1-1.3.1-2s0-1.3-.1-2l4.2-3.3c.4-.3.5-.8.2-1.3l-4-6.9c-.2-.4-.8-.6-1.2-.4l-5,2c-1-.8-2.2-1.5-3.4-2l-.8-5.3c0-.5-.5-.8-1-.8h-8c-.5,0-.9.4-1,.8l-.8,5.3c-1.2.5-2.4,1.2-3.4,2l-5-2c-.4-.2-1,0-1.2.4l-4,6.9c-.2.4-.1,1,.2,1.3l4.2,3.3c0,.6-.1,1.3-.1,2s0,1.3.1,2l-4.2,3.3c-.4.3-.5.8-.2,1.3l4,6.9c.2.4.8.6,1.2.4l5-2c1,.8,2.2,1.5,3.4,2l.8,5.3c0,.5.5.8,1,.8h8c.5,0,.9-.4,1-.8l.8-5.3c1.2-.5,2.3-1.2,3.4-2l5,2c.5.2,1,0,1.2-.4l4-6.9c.2-.4.1-1-.2-1.3l-4.2-3.3ZM24,31c-3.9,0-7-3.1-7-7s3.1-7,7-7,7,3.1,7,7-3.1,7-7,7Z"/>
    </g>
  </g>
</svg>