<?xml version="1.0" encoding="UTF-8"?>
<svg xmlns="http://www.w3.org/2000/svg" version="1.1" viewBox="0 0 24 24">
  <defs>
    <style>
      .cls-1 {
        fill: #dedede;
        fill-rule: evenodd;
      }
    </style>
  </defs>
  <!-- Generator: Adobe Illustrator 28.6.0, SVG Export Plug-In . SVG Version: 1.2.0 Build 709)  -->
  <g>
    <g id="_레이어_1" data-name="레이어_1">
      <path class="cls-1" d="M8.9,13.8c-1,0-1.9.4-2.6,1.1-.7.7-1.1,1.6-1.1,2.6v1.9c0,.3.3.6.6.6h12.3c.3,0,.6-.3.6-.6v-1.9c0-1-.4-1.9-1.1-2.6-.7-.7-1.6-1.1-2.6-1.1h-6.1Z"/>
      <path class="cls-1" d="M12,4.6c-2,0-3.6,1.6-3.6,3.6s1.6,3.6,3.6,3.6,3.6-1.6,3.6-3.6-1.6-3.6-3.6-3.6Z"/>
    </g>
  </g>
</svg>