<svg width="172" height="48" viewBox="0 0 172 48" fill="none" xmlns="http://www.w3.org/2000/svg">
<path d="M42 14L25.9583 6.20066C25.6963 6.07327 25.3918 6.06648 25.1243 6.18205L7.03437 14L25.0813 22.7743C25.3726 22.9159 25.7144 22.9077 25.9985 22.7523L42 14Z" fill="#2B2B2B"/>
<path d="M7.03437 14L25.0813 22.7743C25.3726 22.9159 25.7144 22.9077 25.9985 22.7523L42 14L25.9583 6.20066C25.6963 6.07327 25.3918 6.06648 25.1243 6.18205L7.03437 14ZM7.03437 14C7.03437 14 6.08474 16.3916 6.00597 18C5.90857 19.989 7.03437 23 7.03437 23M42 23L25.9985 31.7523C25.7144 31.9077 25.3726 31.9159 25.0813 31.7743L7.03437 23M7.03437 23C7.03437 23 6.00597 26.0087 6.00597 28C6.00597 29.9913 7.03437 33 7.03437 33L25.0813 41.7743C25.3726 41.9159 25.7144 41.9077 25.9985 41.7523L42 33" stroke="#2B2B2B" stroke-width="4" stroke-linecap="round" stroke-linejoin="round"/>
<path d="M69.208 18.712H63.15V21.988H68.87V26.304H63.15V29.684H69.208V34H58.054V14.396H69.208V18.712ZM83.0741 27.37C83.0741 26.954 82.9961 26.564 82.8401 26.2C82.7015 25.8187 82.4935 25.4893 82.2161 25.212C81.9388 24.9347 81.6095 24.718 81.2281 24.562C80.8641 24.3887 80.4655 24.302 80.0321 24.302C79.6161 24.302 79.2261 24.38 78.8621 24.536C78.4981 24.692 78.1775 24.9087 77.9001 25.186C77.6401 25.4633 77.4235 25.7927 77.2501 26.174C77.0941 26.538 77.0161 26.928 77.0161 27.344C77.0161 27.76 77.0941 28.15 77.2501 28.514C77.4061 28.878 77.6228 29.1987 77.9001 29.476C78.1775 29.736 78.4981 29.9527 78.8621 30.126C79.2435 30.282 79.6421 30.36 80.0581 30.36C80.4741 30.36 80.8641 30.282 81.2281 30.126C81.5921 29.97 81.9041 29.7533 82.1641 29.476C82.4415 29.1987 82.6581 28.878 82.8141 28.514C82.9875 28.15 83.0741 27.7687 83.0741 27.37ZM77.1461 40.656H72.4401V20.662H77.1461V22.144C78.1515 20.8787 79.5208 20.246 81.2541 20.246C82.2075 20.246 83.0915 20.4367 83.9061 20.818C84.7381 21.182 85.4575 21.6847 86.0641 22.326C86.6708 22.9673 87.1388 23.7213 87.4681 24.588C87.8148 25.4547 87.9881 26.382 87.9881 27.37C87.9881 28.358 87.8148 29.2767 87.4681 30.126C87.1388 30.9753 86.6708 31.7207 86.0641 32.362C85.4748 33.0033 84.7728 33.506 83.9581 33.87C83.1435 34.234 82.2595 34.416 81.3061 34.416C79.6421 34.416 78.2555 33.844 77.1461 32.7V40.656ZM95.3766 20.662V34H90.6706V20.662H95.3766ZM90.3586 15.54C90.3586 15.176 90.4279 14.838 90.5666 14.526C90.7053 14.1967 90.8959 13.9107 91.1386 13.668C91.3813 13.4253 91.6586 13.2347 91.9706 13.096C92.2999 12.9573 92.6466 12.888 93.0106 12.888C93.3746 12.888 93.7126 12.9573 94.0246 13.096C94.3539 13.2347 94.6399 13.4253 94.8826 13.668C95.1253 13.9107 95.3159 14.1967 95.4546 14.526C95.5933 14.838 95.6626 15.176 95.6626 15.54C95.6626 15.904 95.5933 16.2507 95.4546 16.58C95.3159 16.892 95.1253 17.1693 94.8826 17.412C94.6399 17.6547 94.3539 17.8453 94.0246 17.984C93.7126 18.1227 93.3746 18.192 93.0106 18.192C92.6466 18.192 92.2999 18.1227 91.9706 17.984C91.6586 17.8453 91.3813 17.6547 91.1386 17.412C90.8959 17.1693 90.7053 16.892 90.5666 16.58C90.4279 16.2507 90.3586 15.904 90.3586 15.54ZM102.96 27.266C102.96 27.6993 103.038 28.1067 103.194 28.488C103.35 28.852 103.558 29.1727 103.818 29.45C104.096 29.7273 104.416 29.944 104.78 30.1C105.162 30.256 105.569 30.334 106.002 30.334C106.418 30.334 106.808 30.256 107.172 30.1C107.554 29.944 107.874 29.7273 108.134 29.45C108.412 29.1727 108.628 28.852 108.784 28.488C108.958 28.1067 109.044 27.708 109.044 27.292C109.044 26.8587 108.958 26.46 108.784 26.096C108.628 25.732 108.412 25.4113 108.134 25.134C107.857 24.8567 107.528 24.64 107.146 24.484C106.782 24.328 106.401 24.25 106.002 24.25C105.586 24.25 105.196 24.3367 104.832 24.51C104.468 24.666 104.148 24.8827 103.87 25.16C103.593 25.42 103.368 25.732 103.194 26.096C103.038 26.46 102.96 26.85 102.96 27.266ZM113.516 20.662V33.09C113.516 33.8353 113.473 34.5027 113.386 35.092C113.3 35.6813 113.178 36.2013 113.022 36.652C112.814 37.224 112.485 37.7527 112.034 38.238C111.601 38.7407 111.072 39.174 110.448 39.538C109.824 39.902 109.114 40.188 108.316 40.396C107.536 40.604 106.687 40.708 105.768 40.708C104.728 40.708 103.775 40.578 102.908 40.318C102.042 40.058 101.279 39.694 100.62 39.226C99.9791 38.7753 99.4505 38.238 99.0345 37.614C98.6185 37.0073 98.3411 36.34 98.2025 35.612H103.506C103.836 36.496 104.581 36.938 105.742 36.938C106.73 36.938 107.484 36.6607 108.004 36.106C108.542 35.5513 108.81 34.78 108.81 33.792V32.518C108.464 32.8473 108.126 33.1247 107.796 33.35C107.484 33.558 107.164 33.7313 106.834 33.87C106.505 34.0087 106.158 34.104 105.794 34.156C105.43 34.2253 105.032 34.26 104.598 34.26C103.645 34.26 102.77 34.0953 101.972 33.766C101.175 33.4367 100.482 32.9773 99.8925 32.388C99.3205 31.7987 98.8698 31.0967 98.5405 30.282C98.2285 29.45 98.0725 28.5313 98.0725 27.526C98.0725 26.5033 98.2458 25.5587 98.5925 24.692C98.9391 23.808 99.4071 23.0453 99.9965 22.404C100.603 21.7453 101.314 21.234 102.128 20.87C102.96 20.4887 103.862 20.298 104.832 20.298C106.41 20.298 107.736 20.8873 108.81 22.066V20.662H113.516ZM117.178 20.662H121.884V22.846C122.387 22.0487 123.002 21.442 123.73 21.026C124.458 20.5927 125.308 20.376 126.278 20.376C126.4 20.376 126.53 20.376 126.668 20.376C126.824 20.376 126.998 20.3933 127.188 20.428V24.926C126.564 24.614 125.888 24.458 125.16 24.458C124.068 24.458 123.245 24.7873 122.69 25.446C122.153 26.0873 121.884 27.032 121.884 28.28V34H117.178V20.662ZM133.81 27.292C133.81 27.7253 133.888 28.1327 134.044 28.514C134.2 28.878 134.408 29.1987 134.668 29.476C134.945 29.7533 135.266 29.97 135.63 30.126C136.011 30.282 136.419 30.36 136.852 30.36C137.268 30.36 137.658 30.282 138.022 30.126C138.403 29.97 138.724 29.7533 138.984 29.476C139.261 29.1987 139.478 28.878 139.634 28.514C139.807 28.15 139.894 27.76 139.894 27.344C139.894 26.928 139.807 26.538 139.634 26.174C139.478 25.7927 139.261 25.4633 138.984 25.186C138.724 24.9087 138.403 24.692 138.022 24.536C137.658 24.38 137.268 24.302 136.852 24.302C136.419 24.302 136.011 24.38 135.63 24.536C135.266 24.692 134.945 24.9087 134.668 25.186C134.408 25.4633 134.2 25.784 134.044 26.148C133.888 26.4947 133.81 26.876 133.81 27.292ZM139.738 20.662H144.47V34H139.738V32.518C138.733 33.7833 137.372 34.416 135.656 34.416C134.685 34.416 133.793 34.2427 132.978 33.896C132.163 33.532 131.453 33.0293 130.846 32.388C130.239 31.7467 129.763 30.9927 129.416 30.126C129.087 29.2593 128.922 28.3147 128.922 27.292C128.922 26.3387 129.087 25.4373 129.416 24.588C129.745 23.7213 130.205 22.9673 130.794 22.326C131.383 21.6847 132.085 21.182 132.9 20.818C133.715 20.4367 134.616 20.246 135.604 20.246C137.268 20.246 138.646 20.8267 139.738 21.988V20.662ZM147.673 20.662H152.379V22.3C153.661 21.0693 155.1 20.454 156.695 20.454C158.671 20.454 160.179 21.286 161.219 22.95C162.276 21.2687 163.784 20.428 165.743 20.428C166.367 20.428 166.956 20.5233 167.511 20.714C168.065 20.8873 168.542 21.1733 168.941 21.572C169.339 21.9533 169.651 22.456 169.877 23.08C170.119 23.704 170.241 24.458 170.241 25.342V34H165.535V27.422C165.535 26.746 165.483 26.1913 165.379 25.758C165.292 25.3247 165.153 24.9867 164.963 24.744C164.789 24.5013 164.581 24.3367 164.339 24.25C164.096 24.1633 163.836 24.12 163.559 24.12C162.051 24.12 161.297 25.2207 161.297 27.422V34H156.591V27.422C156.591 26.746 156.547 26.1913 156.461 25.758C156.374 25.3073 156.244 24.952 156.071 24.692C155.915 24.432 155.707 24.2587 155.447 24.172C155.187 24.068 154.883 24.016 154.537 24.016C154.242 24.016 153.965 24.0593 153.705 24.146C153.445 24.2327 153.211 24.406 153.003 24.666C152.812 24.9087 152.656 25.2553 152.535 25.706C152.431 26.1393 152.379 26.7113 152.379 27.422V34H147.673V20.662Z" fill="#2B2B2B"/>
</svg>
