<svg width="40" height="40" viewBox="0 0 40 40" fill="none" xmlns="http://www.w3.org/2000/svg">
<path d="M4 39.5C2.07 39.5 0.5 37.93 0.5 36V4C0.5 2.07 2.07 0.5 4 0.5H36C37.93 0.5 39.5 2.07 39.5 4V36C39.5 37.93 37.93 39.5 36 39.5H4Z" fill="white"/>
<path d="M36 1C37.65 1 39 2.35 39 4V36C39 37.65 37.65 39 36 39H4C2.35 39 1 37.65 1 36V4C1 2.35 2.35 1 4 1H36ZM36 0H4C1.8 0 0 1.8 0 4V36C0 38.2 1.8 40 4 40H36C38.2 40 40 38.2 40 36V4C40 1.8 38.2 0 36 0Z" fill="#E6E6EA"/>
<g clip-path="url(#clip0_22_1315)">
<path fill-rule="evenodd" clip-rule="evenodd" d="M29.0004 20.2045C29.0011 19.587 28.9453 18.9706 28.8334 18.3629H20.1816V21.8442H25.1244C25.0218 22.3943 24.8065 22.9183 24.4916 23.3846C24.1767 23.8509 23.7686 24.2499 23.2919 24.5574V26.816H26.2595C27.9959 25.2492 28.9978 22.9413 28.9978 20.2028L29.0004 20.2045Z" fill="#3E82F1"/>
<path fill-rule="evenodd" clip-rule="evenodd" d="M20.1836 28.999C22.6632 28.999 24.7422 28.1935 26.2615 26.8191L23.2939 24.5604C22.4712 25.1005 21.4191 25.4202 20.1836 25.4202C17.7914 25.4202 15.7669 23.8364 15.0453 21.7091H11.9766V24.0416C12.741 25.5323 13.9134 26.7854 15.3627 27.6609C16.812 28.5363 18.4811 28.9996 20.1836 28.999Z" fill="#32A753"/>
<path fill-rule="evenodd" clip-rule="evenodd" d="M15.0455 21.7089C14.6614 20.6002 14.6614 19.3982 15.0455 18.2895V15.957H11.9767C11.3345 17.2115 11 18.5957 11 19.9992C11 21.4027 11.3345 22.7869 11.9767 24.0413L15.0455 21.7089Z" fill="#F9BB00"/>
<path fill-rule="evenodd" clip-rule="evenodd" d="M20.1839 14.5788C21.5327 14.5788 22.743 15.0333 23.6947 15.9252L26.3283 13.3435C24.7381 11.8911 22.6591 11 20.1856 11C18.4831 10.9994 16.8139 11.4627 15.3646 12.3381C13.9153 13.2135 12.743 14.4667 11.9785 15.9574L15.0473 18.2899C15.7689 16.1626 17.7934 14.5788 20.1856 14.5788H20.1839Z" fill="#E74133"/>
</g>
<defs>
<clipPath id="clip0_22_1315">
<rect width="18" height="18" fill="white" transform="translate(11 11)"/>
</clipPath>
</defs>
</svg>
